<svg id="visual" viewBox="0 0 900 600" width="900" height="600" xmlns="http://www.w3.org/2000/svg" xmlns:xlink="http://www.w3.org/1999/xlink" version="1.1"><rect x="0" y="0" width="900" height="600" fill="#001220"></rect><defs><linearGradient id="grad1_0" x1="33.3%" y1="0%" x2="100%" y2="100%"><stop offset="20%" stop-color="#001220" stop-opacity="1"></stop><stop offset="80%" stop-color="#001220" stop-opacity="1"></stop></linearGradient></defs><defs><linearGradient id="grad2_0" x1="0%" y1="0%" x2="66.7%" y2="100%"><stop offset="20%" stop-color="#001220" stop-opacity="1"></stop><stop offset="80%" stop-color="#001220" stop-opacity="1"></stop></linearGradient></defs><g transform="translate(900, 0)"><path d="M0 486.7C-52.5 455.2 -105 423.6 -168 405.6C-231 387.5 -304.4 383 -344.2 344.2C-384 305.4 -390.2 232.2 -408.4 169.1C-426.5 106.1 -456.6 53 -486.7 0L0 0Z" fill="#FBAE3C"></path></g><g transform="translate(0, 600)"><path d="M0 -486.7C55.5 -451.2 111 -415.7 160 -386.2C208.9 -356.6 251.2 -333 303.3 -303.3C355.5 -273.7 417.5 -237.8 449.7 -186.3C481.9 -134.7 484.3 -67.3 486.7 0L0 0Z" fill="#FBAE3C"></path></g></svg>