<svg id="visual" viewBox="0 0 900 600" width="900" height="600" xmlns="http://www.w3.org/2000/svg" xmlns:xlink="http://www.w3.org/1999/xlink" version="1.1"><rect width="900" height="600" fill="#931F1F"></rect><g><g transform="translate(139 219)"><path d="M99.7 -32.8C111.8 5 92.3 52.6 56.1 79.5C19.9 106.3 -33.1 112.4 -64.4 89.4C-95.7 66.5 -105.3 14.6 -90.9 -26.2C-76.6 -66.9 -38.3 -96.5 2.7 -97.4C43.8 -98.3 87.5 -70.5 99.7 -32.8Z" stroke="#F7760E" fill="none" stroke-width="20"></path></g><g transform="translate(873 493)"><path d="M77.6 -24.2C90.3 13.8 83.2 59.2 54.1 82.2C25 105.1 -26 105.5 -58.8 81.5C-91.7 57.5 -106.4 9.1 -93.5 -29.1C-80.7 -67.3 -40.4 -95.2 -3.9 -93.9C32.5 -92.7 64.9 -62.2 77.6 -24.2Z" stroke="#F7760E" fill="none" stroke-width="20"></path></g><g transform="translate(419 345)"><path d="M74.3 -22.3C84.4 6.9 72.4 45 47.7 62.1C23 79.2 -14.4 75.2 -39.4 56.5C-64.5 37.7 -77.3 4.2 -68.6 -22.9C-60 -50.1 -30 -70.9 1.1 -71.3C32.1 -71.6 64.2 -51.5 74.3 -22.3Z" stroke="#F7760E" fill="none" stroke-width="20"></path></g></g></svg>