<svg id="visual" viewBox="0 0 900 600" width="900" height="600" xmlns="http://www.w3.org/2000/svg" xmlns:xlink="http://www.w3.org/1999/xlink" version="1.1"><path d="M0 211L82 217L164 121L245 199L327 85L409 217L491 193L573 223L655 79L736 181L818 169L900 121L900 0L818 0L736 0L655 0L573 0L491 0L409 0L327 0L245 0L164 0L82 0L0 0Z" fill="#038373"></path><path d="M0 319L82 283L164 187L245 301L327 139L409 325L491 241L573 325L655 163L736 235L818 241L900 187L900 119L818 167L736 179L655 77L573 221L491 191L409 215L327 83L245 197L164 119L82 215L0 209Z" fill="#00957c"></path><path d="M0 397L82 331L164 235L245 391L327 205L409 397L491 283L573 415L655 259L736 313L818 277L900 283L900 185L818 239L736 233L655 161L573 323L491 239L409 323L327 137L245 299L164 185L82 281L0 317Z" fill="#00a784"></path><path d="M0 541L82 505L164 451L245 523L327 451L409 481L491 535L573 535L655 451L736 433L818 463L900 499L900 281L818 275L736 311L655 257L573 413L491 281L409 395L327 203L245 389L164 233L82 329L0 395Z" fill="#00b98a"></path><path d="M0 601L82 601L164 601L245 601L327 601L409 601L491 601L573 601L655 601L736 601L818 601L900 601L900 497L818 461L736 431L655 449L573 533L491 533L409 479L327 449L245 521L164 449L82 503L0 539Z" fill="#00cc8e"></path></svg>