<svg id="visual" viewBox="0 0 900 600" width="900" height="600" xmlns="http://www.w3.org/2000/svg" xmlns:xlink="http://www.w3.org/1999/xlink" version="1.1"><rect x="0" y="0" width="900" height="600" fill="#002233"></rect><path d="M578 600L593.3 585.7C608.7 571.3 639.3 542.7 653.5 514.2C667.7 485.7 665.3 457.3 677.8 428.8C690.3 400.3 717.7 371.7 730 343C742.3 314.3 739.7 285.7 743.2 257C746.7 228.3 756.3 199.7 741 171.2C725.7 142.7 685.3 114.3 662.5 85.8C639.7 57.3 634.3 28.7 631.7 14.3L629 0L900 0L900 14.3C900 28.7 900 57.3 900 85.8C900 114.3 900 142.7 900 171.2C900 199.7 900 228.3 900 257C900 285.7 900 314.3 900 343C900 371.7 900 400.3 900 428.8C900 457.3 900 485.7 900 514.2C900 542.7 900 571.3 900 585.7L900 600Z" fill="#0066FF" stroke-linecap="round" stroke-linejoin="miter"></path></svg>