<svg id="visual" viewBox="0 0 900 600" width="900" height="600" xmlns="http://www.w3.org/2000/svg" xmlns:xlink="http://www.w3.org/1999/xlink" version="1.1"><rect x="0" y="0" width="900" height="600" fill="#002233"></rect><path d="M0 398L21.5 401.8C43 405.7 86 413.3 128.8 434.3C171.7 455.3 214.3 489.7 257.2 485.3C300 481 343 438 385.8 416.5C428.7 395 471.3 395 514.2 398.5C557 402 600 409 642.8 411.5C685.7 414 728.3 412 771.2 411.8C814 411.7 857 413.3 878.5 414.2L900 415L900 601L878.5 601C857 601 814 601 771.2 601C728.3 601 685.7 601 642.8 601C600 601 557 601 514.2 601C471.3 601 428.7 601 385.8 601C343 601 300 601 257.2 601C214.3 601 171.7 601 128.8 601C86 601 43 601 21.5 601L0 601Z" fill="#0066FF" stroke-linecap="round" stroke-linejoin="miter"></path></svg>